<svg width="24" height="24" viewBox="0 0 24 24" fill="none" xmlns="http://www.w3.org/2000/svg">
<path d="M9.75 17.25L12 19.5L14.25 17.25" stroke="white" stroke-width="1.5"/>
<path d="M12 13.53V19.5001" stroke="white" stroke-width="1.5"/>
<path fill-rule="evenodd" clip-rule="evenodd" d="M4.63146 11.4242L5.40637 12.1991C5.54094 12.3353 5.72121 12.4168 5.91237 12.4279C6.10353 12.4391 6.29203 12.379 6.4415 12.2593C7.21364 11.5959 8.101 11.0798 9.05946 10.7367C9.24356 10.6745 9.39755 10.5454 9.49089 10.375C9.58423 10.2045 9.61009 10.0052 9.56334 9.81661L9.3607 9.07722C9.33511 8.9891 9.32543 8.89727 9.33195 8.80603C8.10882 9.10123 7.12008 9.56977 6.36423 10.0362C5.74245 10.4199 5.27804 10.8025 4.97148 11.0863C4.81845 11.2279 4.70509 11.3446 4.63146 11.4242ZM3.92392 10.7166L3.25394 10.0466C3.09402 9.89007 2.96993 9.7007 2.8902 9.49158C2.81048 9.28246 2.77701 9.05855 2.7921 8.83525C2.8072 8.61196 2.8705 8.39458 2.97764 8.1981C3.08479 8.00161 3.23324 7.83067 3.41277 7.69704C5.86212 5.80534 8.87126 4.78237 11.9661 4.78931C15.0609 4.79625 18.0654 5.83271 20.5062 7.73538C20.6852 7.86862 20.8333 8.03896 20.9404 8.23474C21.0474 8.43051 21.111 8.64712 21.1266 8.86971C21.1422 9.09231 21.1095 9.31566 21.0308 9.52446C20.9521 9.73326 20.8292 9.92259 20.6705 10.0795L20.1299 10.6201C20.1265 10.6168 20.1228 10.6132 20.1188 10.6095C20.0924 10.5843 20.0545 10.5488 20.0052 10.5044C19.9068 10.4157 19.7629 10.2913 19.576 10.1432C19.2023 9.84734 18.6548 9.45564 17.9513 9.06459C16.545 8.28286 14.5047 7.49819 11.9808 7.49819C9.25993 7.49819 7.21047 8.33889 5.83906 9.18522C5.15434 9.60777 4.63887 10.0315 4.29218 10.3524C4.13505 10.4979 4.01231 10.6224 3.92392 10.7166ZM19.4226 11.3274C19.4028 11.3085 19.3738 11.2815 19.3358 11.2473C19.2518 11.1716 19.1242 11.061 18.9552 10.9272C18.6169 10.6593 18.1143 10.2993 17.4655 9.93863C16.7165 9.52232 15.7762 9.10699 14.6705 8.83004C14.6739 8.91335 14.6638 8.99683 14.6404 9.07722L14.4378 9.81661C14.3886 9.9997 14.4082 10.1945 14.493 10.3641C14.5778 10.5337 14.7218 10.6662 14.8979 10.7367C15.8563 11.0798 16.7437 11.5959 17.5158 12.2593C17.6653 12.379 17.8538 12.4391 18.0449 12.4279C18.2361 12.4168 18.4164 12.3353 18.5509 12.1991L19.4226 11.3274Z" fill="white"/>
</svg>
