<svg width="159" height="36" viewBox="0 0 159 36" fill="none" xmlns="http://www.w3.org/2000/svg">
<path d="M56.408 27.5377C55.9294 27.5377 55.5012 27.3732 55.1234 27.0441C54.7456 26.715 54.5566 26.2801 54.5566 25.7395V11.9882H52.932C52.4031 11.9882 51.9749 11.8472 51.6474 11.5651C51.32 11.2831 51.1562 10.9305 51.1562 10.5073C51.1562 10.0372 51.32 9.66112 51.6474 9.37904C51.9749 9.09696 52.4031 8.95592 52.932 8.95592H54.5566V8.35651C54.5566 6.66405 54.9093 5.19491 55.6145 3.94907C56.345 2.70323 57.3525 1.73947 58.6371 1.05779C59.9217 0.352595 61.4078 0 63.0954 0C63.6496 0 64.1029 0.152792 64.4556 0.458375C64.8334 0.763956 65.0223 1.15181 65.0223 1.62194C65.0223 2.06856 64.8334 2.45641 64.4556 2.7855C64.1029 3.09109 63.6496 3.24388 63.0954 3.24388C61.6849 3.24388 60.5514 3.67875 59.695 4.54848C58.8386 5.41822 58.4104 6.57003 58.4104 8.00392V8.95592H62.2642C62.7932 8.95592 63.2214 9.09696 63.5488 9.37904C63.8762 9.66112 64.04 10.0372 64.04 10.5073C64.04 10.9305 63.8762 11.2831 63.5488 11.5651C63.2214 11.8472 62.7932 11.9882 62.2642 11.9882H58.4104V25.7395C58.4104 26.2801 58.2341 26.715 57.8815 27.0441C57.5288 27.3732 57.0377 27.5377 56.408 27.5377Z" fill="#6A3FDE"/>
<path d="M77.024 27.6787C74.9334 27.6787 73.0695 27.2674 71.4323 26.4447C69.8202 25.5984 68.5482 24.4466 67.6163 22.9892C66.7095 21.5083 66.2561 19.8159 66.2561 17.9118C66.2561 15.9843 66.6843 14.2919 67.5407 12.8345C68.4223 11.3536 69.6313 10.2018 71.1678 9.37904C72.7043 8.53281 74.4674 8.1097 76.4573 8.1097C78.422 8.1097 80.1096 8.52106 81.5201 9.34378C82.9306 10.143 84.0011 11.2595 84.7316 12.6934C85.4872 14.1038 85.8651 15.7375 85.8651 17.5945C85.8651 18.0411 85.7013 18.4172 85.3739 18.7228C85.0465 19.0049 84.6308 19.1459 84.1271 19.1459H69.7699C70.0469 20.7679 70.8404 22.096 72.1501 23.1303C73.4851 24.141 75.1097 24.6464 77.024 24.6464C77.8049 24.6464 78.5983 24.5171 79.4043 24.2586C80.2355 23.9765 80.903 23.6592 81.4068 23.3066C81.7846 23.048 82.1876 22.9187 82.6158 22.9187C83.0692 22.8952 83.4596 23.0127 83.787 23.2713C84.2152 23.6239 84.4419 24.0118 84.4671 24.4349C84.4923 24.858 84.2908 25.2223 83.8626 25.5279C83.0062 26.1626 81.9357 26.6797 80.6511 27.0793C79.3917 27.4789 78.1827 27.6787 77.024 27.6787ZM76.4573 11.142C74.5934 11.142 73.0947 11.6239 71.9612 12.5877C70.8278 13.5514 70.1099 14.7973 69.8076 16.3252H82.3891C82.1624 14.8208 81.5453 13.5867 80.5378 12.6229C79.5303 11.6356 78.1701 11.142 76.4573 11.142Z" fill="#6A3FDE"/>
<path d="M98.6567 27.6787C96.818 27.6787 95.1681 27.2556 93.7072 26.4094C92.2463 25.5397 91.0877 24.3761 90.2313 22.9187C89.4001 21.4378 88.9845 19.7689 88.9845 17.9118C88.9845 16.0548 89.4378 14.3859 90.3446 12.905C91.2766 11.4241 92.5234 10.2605 94.085 9.4143C95.6719 8.54456 97.4477 8.1097 99.4123 8.1097C101.377 8.1097 103.14 8.54456 104.702 9.4143C106.263 10.2605 107.498 11.4241 108.404 12.905C109.336 14.3859 109.802 16.0548 109.802 17.9118V25.7747C109.802 26.2919 109.614 26.7267 109.236 27.0793C108.883 27.4084 108.43 27.573 107.876 27.573C107.321 27.573 106.855 27.4084 106.478 27.0793C106.125 26.7267 105.949 26.2919 105.949 25.7747V24.4701C105.067 25.4574 103.997 26.2449 102.737 26.8325C101.503 27.3967 100.143 27.6787 98.6567 27.6787ZM99.4123 24.5054C100.697 24.5054 101.843 24.2233 102.851 23.6592C103.858 23.0715 104.651 22.284 105.231 21.2968C105.81 20.286 106.1 19.1577 106.1 17.9118C106.1 16.6425 105.81 15.5142 105.231 14.5269C104.651 13.5162 103.858 12.7287 102.851 12.1645C101.843 11.5769 100.697 11.2831 99.4123 11.2831C98.1529 11.2831 97.0069 11.5769 95.9742 12.1645C94.9666 12.7287 94.1606 13.5162 93.5561 14.5269C92.9768 15.5142 92.6871 16.6425 92.6871 17.9118C92.6871 19.1577 92.9768 20.286 93.5561 21.2968C94.1606 22.284 94.9666 23.0715 95.9742 23.6592C97.0069 24.2233 98.1529 24.5054 99.4123 24.5054Z" fill="#6A3FDE"/>
<path d="M123.057 27.5377C121.797 27.5377 120.664 27.2439 119.656 26.6562C118.649 26.0451 117.855 25.2223 117.276 24.1881C116.697 23.1538 116.407 21.9902 116.407 20.6974V11.9882H114.669C114.14 11.9882 113.712 11.8472 113.384 11.5651C113.057 11.2831 112.893 10.9305 112.893 10.5073C112.893 10.0372 113.057 9.66112 113.384 9.37904C113.712 9.09696 114.14 8.95592 114.669 8.95592H116.407V3.87855C116.407 3.36141 116.583 2.9383 116.936 2.60921C117.288 2.28012 117.742 2.11557 118.296 2.11557C118.85 2.11557 119.304 2.28012 119.656 2.60921C120.009 2.9383 120.185 3.36141 120.185 3.87855V8.95592H123.397C123.926 8.95592 124.354 9.09696 124.681 9.37904C125.009 9.66112 125.172 10.0372 125.172 10.5073C125.172 10.9305 125.009 11.2831 124.681 11.5651C124.354 11.8472 123.926 11.9882 123.397 11.9882H120.185V20.6974C120.185 21.6376 120.462 22.4251 121.016 23.0597C121.57 23.6944 122.251 24.0118 123.057 24.0118H124.341C124.795 24.0118 125.172 24.1763 125.475 24.5054C125.802 24.8345 125.966 25.2576 125.966 25.7747C125.966 26.2919 125.752 26.715 125.324 27.0441C124.92 27.3732 124.392 27.5377 123.737 27.5377H123.057Z" fill="#6A3FDE"/>
<path d="M135.614 27.5377C134.506 27.5377 133.524 27.2556 132.667 26.6915C131.811 26.1273 131.143 25.3634 130.665 24.3996C130.186 23.4123 129.947 22.284 129.947 21.0147V1.76298C129.947 1.24584 130.123 0.822723 130.476 0.493634C130.828 0.164545 131.282 0 131.836 0C132.39 0 132.843 0.164545 133.196 0.493634C133.549 0.822723 133.725 1.24584 133.725 1.76298V21.0147C133.725 21.8844 133.901 22.6014 134.254 23.1655C134.607 23.7297 135.06 24.0118 135.614 24.0118H136.559C137.062 24.0118 137.465 24.1763 137.768 24.5054C138.095 24.8345 138.259 25.2576 138.259 25.7747C138.259 26.2919 138.02 26.715 137.541 27.0441C137.062 27.3732 136.445 27.5377 135.69 27.5377H135.614Z" fill="#6A3FDE"/>
<path d="M145.732 36C145.48 36 145.178 35.9295 144.826 35.7884C143.717 35.3183 143.415 34.5779 143.919 33.5671L147.697 25.6337L139.196 10.5779C138.944 10.1312 138.906 9.70813 139.083 9.30852C139.284 8.88541 139.624 8.57982 140.103 8.39177C140.581 8.20372 141.035 8.19197 141.463 8.35651C141.891 8.49755 142.219 8.79138 142.445 9.238L149.359 22.0725L155.442 9.27326C155.946 8.28599 156.74 8.00392 157.823 8.42703C158.956 8.87365 159.271 9.6141 158.767 10.6484L147.206 34.907C146.904 35.6357 146.412 36 145.732 36Z" fill="#6A3FDE"/>
<path d="M42.9684 27.6481C42.8132 27.6481 42.6527 27.6332 42.4922 27.5934C41.4275 27.3496 40.7801 26.3495 41.0369 25.3644C41.3954 24.0011 41.5773 22.5931 41.5773 21.1801C41.5773 11.5379 33.1399 3.69172 22.7709 3.69172C12.402 3.69172 3.96458 11.5379 3.96458 21.1801C3.96458 22.5981 4.14649 24.0061 4.50497 25.3644C4.76713 26.3545 4.11439 27.3545 3.04968 27.5934C1.98497 27.8371 0.909554 27.2302 0.652739 26.2401C0.219363 24.5932 0 22.8916 0 21.1801C0 9.50294 10.2191 0 22.7763 0C35.3335 0 45.5526 9.50294 45.5526 21.1801C45.5526 22.8916 45.3332 24.5982 44.8945 26.245C44.6698 27.0859 43.8619 27.6481 42.9684 27.6481Z" fill="#6A3FDE"/>
<path d="M28.5596 21.4389C28.5596 24.4092 25.97 26.8173 22.7759 26.8173C19.5817 26.8173 16.9922 24.4092 16.9922 21.4389C16.9922 18.4686 19.5817 16.0605 22.7759 16.0605C25.97 16.0605 28.5596 18.4686 28.5596 21.4389Z" fill="#6A3FDE"/>
</svg>
