<svg width="32" height="32" viewBox="0 0 32 32" fill="none" xmlns="http://www.w3.org/2000/svg">
<path fill-rule="evenodd" clip-rule="evenodd" d="M6 7C5.44772 7 5 7.44772 5 8V14C5 14.5523 5.44772 15 6 15H14C14.5523 15 15 14.5523 15 14V8C15 7.44772 14.5523 7 14 7H6ZM6 17C5.44772 17 5 17.4477 5 18V24C5 24.5523 5.44772 25 6 25H14C14.5523 25 15 24.5523 15 24V18C15 17.4477 14.5523 17 14 17H6ZM17 8C17 7.44772 17.4477 7 18 7H26C26.5523 7 27 7.44772 27 8V14C27 14.5523 26.5523 15 26 15H18C17.4477 15 17 14.5523 17 14V8ZM18 17C17.4477 17 17 17.4477 17 18V24C17 24.5523 17.4477 25 18 25H26C26.5523 25 27 24.5523 27 24V18C27 17.4477 26.5523 17 26 17H18Z" fill="white"/>
</svg>
