<svg width="32" height="32" viewBox="0 0 32 32" fill="none" xmlns="http://www.w3.org/2000/svg">
<path d="M5.46967 25.4697C5.17678 25.7626 5.17678 26.2374 5.46967 26.5303C5.76256 26.8232 6.23744 26.8232 6.53033 26.5303L5.46967 25.4697ZM25.75 7C25.75 6.58579 25.4142 6.25 25 6.25L18.25 6.25C17.8358 6.25 17.5 6.58579 17.5 7C17.5 7.41421 17.8358 7.75 18.25 7.75L24.25 7.75L24.25 13.75C24.25 14.1642 24.5858 14.5 25 14.5C25.4142 14.5 25.75 14.1642 25.75 13.75L25.75 7ZM6.53033 26.5303L25.5303 7.53033L24.4697 6.46967L5.46967 25.4697L6.53033 26.5303Z" fill="white"/>
</svg>
