<svg width="32" height="32" viewBox="0 0 32 32" fill="none" xmlns="http://www.w3.org/2000/svg">
<path fill-rule="evenodd" clip-rule="evenodd" d="M25.2522 8.28033C25.5451 7.98744 25.5451 7.51256 25.2522 7.21967C24.9593 6.92678 24.4844 6.92678 24.1915 7.21967L16.3067 15.1045L8.42184 7.21967C8.12894 6.92678 7.65407 6.92678 7.36118 7.21967C7.06828 7.51256 7.06828 7.98744 7.36118 8.28033L15.246 16.1652L7.21967 24.1915C6.92678 24.4844 6.92678 24.9593 7.21967 25.2522C7.51256 25.5451 7.98744 25.5451 8.28033 25.2522L16.3067 17.2258L24.333 25.2522C24.6259 25.5451 25.1008 25.5451 25.3937 25.2522C25.6866 24.9593 25.6866 24.4844 25.3937 24.1915L17.3673 16.1652L25.2522 8.28033Z" fill="#ABABAF"/>
</svg>
