<svg width="32" height="32" viewBox="0 0 32 32" fill="none" xmlns="http://www.w3.org/2000/svg">
<path fill-rule="evenodd" clip-rule="evenodd" d="M13.1943 11.6456L20.3535 18.8048L13.9677 25.1906C13.6849 25.4734 13.3173 25.6197 12.9468 25.6294H12.8982V25.6299C12.5173 25.6277 12.137 25.4813 11.8464 25.1906L6.80848 20.1527C6.22269 19.567 6.22269 18.6172 6.80848 18.0314L13.1943 11.6456ZM12.9633 27.1294C12.1769 27.1441 11.3858 26.8514 10.7857 26.2513L5.74782 21.2134C4.57625 20.0418 4.57625 18.1423 5.74782 16.9708L12.1336 10.5849L16.2656 6.45297L16.9727 5.74587C18.1443 4.57429 20.0438 4.57429 21.2154 5.74587L21.9225 6.45297L25.5461 10.0766L26.2532 10.7837C27.4248 11.9553 27.4248 13.8548 26.2532 15.0264L25.5461 15.7335L21.4142 19.8655L15.6502 25.6294H25.6863V27.1294H12.9633Z" fill="white"/>
</svg>
