<svg width="32" height="32" viewBox="0 0 32 32" fill="none" xmlns="http://www.w3.org/2000/svg">
<path fill-rule="evenodd" clip-rule="evenodd" d="M17.3336 4.99981C17.3336 4.43478 16.8596 4 16.1442 4C15.4288 4 14.8932 4.43478 14.8932 4.99981V6.99981V14.2072C14.8932 14.6449 14.5383 14.9998 14.1006 14.9998C13.6628 14.9998 13.3079 14.6449 13.3079 14.2072V6.99981C13.3079 6.43478 12.6876 5.99981 12.1226 5.99981C11.5576 5.99981 11.0108 6.43478 11.0108 6.99981V16.9998V20.1873V21.423L9.29201 19.7043L6.98018 17.4864C6.58676 17.1769 5.67965 16.8681 5.07331 17.4864C4.54002 18.0302 4.89309 19.3196 5.29201 19.7186L12.1045 26.4686C13.0171 27.3776 14.1131 27.9998 15.3858 27.9998H20.0108C22.7844 27.9998 25.0108 25.7735 25.0108 22.9998V10.9998C25.0108 10.4348 24.4695 9.99981 23.7446 9.99981C23.0198 9.99981 22.4762 10.4348 22.4762 10.9998V14.2671C22.4762 14.6718 22.1482 14.9998 21.7435 14.9998C21.3388 14.9998 21.0108 14.6718 21.0108 14.2671V10.9998V6.99981C21.0108 6.43478 20.6085 5.99981 19.8482 5.99981C19.1951 5.99981 18.736 6.43478 18.736 6.99981V14.2986C18.736 14.6859 18.4221 14.9998 18.0348 14.9998C17.6476 14.9998 17.3336 14.6859 17.3336 14.2986V4.99981ZM16.0009 18.0439C15.7247 18.0439 15.5009 18.2678 15.5009 18.5439V23.5439C15.5009 23.8201 15.7247 24.0439 16.0009 24.0439C16.277 24.0439 16.5009 23.8201 16.5009 23.5439V18.5439C16.5009 18.2678 16.277 18.0439 16.0009 18.0439ZM18.0009 18.5439C18.0009 18.2678 18.2247 18.0439 18.5009 18.0439C18.777 18.0439 19.0009 18.2678 19.0009 18.5439V23.5439C19.0009 23.8201 18.777 24.0439 18.5009 24.0439C18.2247 24.0439 18.0009 23.8201 18.0009 23.5439V18.5439ZM21.0009 18.0439C20.7247 18.0439 20.5009 18.2678 20.5009 18.5439V23.5439C20.5009 23.8201 20.7247 24.0439 21.0009 24.0439C21.277 24.0439 21.5009 23.8201 21.5009 23.5439V18.5439C21.5009 18.2678 21.277 18.0439 21.0009 18.0439Z" fill="white"/>
</svg>
