<svg width="32" height="32" viewBox="0 0 32 32" fill="none" xmlns="http://www.w3.org/2000/svg">
<path fill-rule="evenodd" clip-rule="evenodd" d="M7.2 7C5.98497 7 5 8.00736 5 9.25V22.75C5 23.9926 5.98497 25 7.2 25H24.8C26.015 25 27 23.9926 27 22.75V9.25C27 8.00736 26.015 7 24.8 7H7.2ZM19.5 15C20.8807 15 22 13.8807 22 12.5C22 11.1193 20.8807 10 19.5 10C18.1193 10 17 11.1193 17 12.5C17 13.8807 18.1193 15 19.5 15ZM12.7477 13.8204L6.5 23.5H17H20.5H25L21.8682 18.0194C21.4843 17.3476 20.5157 17.3476 20.1318 18.0194L18.6685 20.5802L14.435 13.8313C14.0461 13.2112 13.1447 13.2054 12.7477 13.8204Z" fill="white"/>
</svg>
