<svg width="32" height="32" viewBox="0 0 32 32" fill="none" xmlns="http://www.w3.org/2000/svg">
<path fill-rule="evenodd" clip-rule="evenodd" d="M15.5919 12.3369C15.5919 13.8774 14.3431 15.1263 12.8025 15.1263C11.262 15.1263 10.0132 13.8774 10.0132 12.3369C10.0132 10.7964 11.262 9.54755 12.8025 9.54755C14.3431 9.54755 15.5919 10.7964 15.5919 12.3369ZM12.8025 16.6503C16.8852 16.6503 18.8103 19.1918 19.0397 22.4515H6.56543C6.7948 19.1918 8.71993 16.6503 12.8025 16.6503ZM19.2212 17.9779C20.1703 19.1957 20.7076 20.7412 20.8743 22.4525H25.4347C25.2533 19.872 23.7294 17.86 20.4975 17.86C20.0379 17.86 19.6128 17.9007 19.2212 17.9779ZM20.0743 16.2313C21.0958 16.2313 21.9239 15.4032 21.9239 14.3817C21.9239 13.3601 21.0958 12.532 20.0743 12.532C19.0527 12.532 18.2246 13.3601 18.2246 14.3817C18.2246 15.4032 19.0527 16.2313 20.0743 16.2313Z" fill="white"/>
</svg>
