<svg width="32" height="32" viewBox="0 0 32 32" fill="none" xmlns="http://www.w3.org/2000/svg">
<mask id="path-1-inside-1_300_8319" fill="white">
<path fill-rule="evenodd" clip-rule="evenodd" d="M26.3848 12.5163L5.61328 6.51562L15.7926 25.4861C17.398 19.8498 21.2818 15.1734 26.3848 12.5163Z"/>
</mask>
<path d="M5.61328 6.51562L6.02959 5.07455L2.60721 4.08586L4.29154 7.22485L5.61328 6.51562ZM26.3848 12.5163L27.0776 13.8467L30.4023 12.1156L26.8011 11.0752L26.3848 12.5163ZM15.7926 25.4861L14.4708 26.1953L16.2211 29.4573L17.2352 25.897L15.7926 25.4861ZM5.19697 7.9567L25.9685 13.9574L26.8011 11.0752L6.02959 5.07455L5.19697 7.9567ZM17.1143 24.7769L6.93502 5.8064L4.29154 7.22485L14.4708 26.1953L17.1143 24.7769ZM17.2352 25.897C18.7259 20.6634 22.3346 16.3164 27.0776 13.8467L25.692 11.1858C20.229 14.0305 16.07 19.0363 14.3499 25.0752L17.2352 25.897Z" fill="white" mask="url(#path-1-inside-1_300_8319)"/>
</svg>
