<svg width="32" height="32" viewBox="0 0 32 32" fill="none" xmlns="http://www.w3.org/2000/svg">
<path d="M7 25H25.217" stroke="white" stroke-width="1.5" stroke-linecap="round"/>
<path d="M22.1494 13.5509C22.0068 13.5508 21.8644 13.541 21.7231 13.5216C20.8904 13.4099 20.0707 12.9873 19.4158 12.3324C18.7609 11.677 18.3383 10.8578 18.2261 10.0247C18.1065 9.13471 18.3625 8.29922 18.9294 7.7323C19.4963 7.16537 20.3318 6.90891 21.2218 7.029C22.0549 7.14117 22.8746 7.56334 23.5295 8.2187C24.1844 8.87406 24.607 9.69326 24.7192 10.526C24.8388 11.4164 24.5823 12.2519 24.0159 12.8188C23.5407 13.2935 22.8765 13.5509 22.1494 13.5509ZM20.403 11.3447C20.8364 11.7785 21.3856 12.0675 21.9097 12.136C22.371 12.1983 22.7685 12.0894 23.0268 11.8292C23.2851 11.569 23.3959 11.172 23.3335 10.7121C23.2633 10.188 22.9742 9.6388 22.5423 9.20546C21.6993 8.36252 20.4966 8.14004 19.9166 8.71953C19.3367 9.29902 19.5596 10.5018 20.403 11.3447Z" fill="white"/>
<path d="M12.1748 23.5271C12.0323 23.5271 11.89 23.5174 11.7489 23.4983C10.9157 23.3861 10.0961 22.9639 9.44117 22.3086C8.78627 21.6532 8.36364 20.834 8.25146 20.0013C8.13184 19.1109 8.38831 18.2754 8.95477 17.7085C9.08574 17.5775 9.26338 17.5039 9.44861 17.5039C9.63384 17.5039 9.81148 17.5775 9.94246 17.7085C10.0734 17.8394 10.147 18.0171 10.147 18.2023C10.147 18.3875 10.0734 18.5652 9.94246 18.6962C9.68227 18.9559 9.57335 19.3534 9.63526 19.8132C9.70601 20.3374 9.99506 20.8866 10.4265 21.3199C11.2737 22.1661 12.4741 22.3872 13.054 21.8077C13.1184 21.741 13.1955 21.6878 13.2806 21.6513C13.3658 21.6147 13.4574 21.5954 13.5501 21.5946C13.6429 21.5938 13.7348 21.6115 13.8206 21.6466C13.9064 21.6817 13.9844 21.7335 14.0499 21.7991C14.1155 21.8646 14.1673 21.9426 14.2024 22.0284C14.2375 22.1142 14.2552 22.2061 14.2544 22.2988C14.2536 22.3915 14.2343 22.4831 14.1977 22.5683C14.1611 22.6535 14.1079 22.7305 14.0413 22.795C13.566 23.2702 12.9028 23.5271 12.1748 23.5271Z" fill="white"/>
<path d="M6.69801 25.749C6.59349 25.749 6.49031 25.7255 6.39608 25.6803C6.30185 25.6351 6.21898 25.5692 6.15358 25.4877C6.08817 25.4062 6.04191 25.311 6.0182 25.2092C5.99449 25.1074 5.99394 25.0016 6.01658 24.8996C6.02869 24.8451 6.31727 23.5498 6.71802 22.1208C7.4702 19.4398 7.92402 18.7383 8.23541 18.427L18.9302 7.73268C18.9946 7.66599 19.0716 7.61281 19.1568 7.57621C19.242 7.53962 19.3336 7.52036 19.4263 7.51956C19.519 7.51875 19.6109 7.53642 19.6967 7.57152C19.7825 7.60663 19.8605 7.65847 19.926 7.72402C19.9916 7.78958 20.0434 7.86753 20.0785 7.95334C20.1136 8.03914 20.1313 8.13108 20.1305 8.22378C20.1297 8.31648 20.1104 8.4081 20.0738 8.49328C20.0373 8.57846 19.9841 8.6555 19.9174 8.71991L9.2231 19.4147C9.18074 19.4565 8.79162 19.9001 8.06226 22.4983C7.89888 23.0806 7.75273 23.6475 7.63869 24.1106C8.10415 23.9957 8.67247 23.8495 9.25615 23.6852C11.8497 22.9572 12.2928 22.5681 12.3347 22.5262L23.0289 11.8319C23.1599 11.701 23.3374 11.6274 23.5226 11.6273C23.7078 11.6273 23.8854 11.7008 24.0164 11.8317C24.1474 11.9626 24.221 12.1402 24.221 12.3254C24.2211 12.5106 24.1476 12.6882 24.0166 12.8192L13.3219 23.5148C13.0105 23.8262 12.3095 24.28 9.62805 25.0327C8.20143 25.433 6.90374 25.7216 6.84928 25.7337C6.79957 25.7443 6.74884 25.7494 6.69801 25.749Z" fill="white"/>
<path d="M21.5905 11.0895C21.4988 11.0895 21.408 11.0714 21.3232 11.0362C21.2385 11.0011 21.1615 10.9496 21.0967 10.8847L20.864 10.652C20.7368 10.5203 20.6664 10.3439 20.668 10.1609C20.6696 9.9778 20.743 9.80269 20.8725 9.67324C21.0019 9.54379 21.177 9.47037 21.3601 9.46878C21.5431 9.46719 21.7195 9.53756 21.8512 9.66474L22.0839 9.89746C22.1816 9.99508 22.2481 10.1195 22.2751 10.2549C22.3021 10.3903 22.2883 10.5307 22.2355 10.6583C22.1827 10.7859 22.0932 10.895 21.9784 10.9717C21.8636 11.0485 21.7286 11.0895 21.5905 11.0895Z" fill="white"/>
</svg>
