<svg width="32" height="32" viewBox="0 0 32 32" fill="none" xmlns="http://www.w3.org/2000/svg">
<path d="M16.75 6C16.75 5.58579 16.4142 5.25 16 5.25C15.5858 5.25 15.25 5.58579 15.25 6L16.75 6ZM15.4697 18.5303C15.7626 18.8232 16.2374 18.8232 16.5303 18.5303L21.3033 13.7574C21.5962 13.4645 21.5962 12.9896 21.3033 12.6967C21.0104 12.4038 20.5355 12.4038 20.2426 12.6967L16 16.9393L11.7574 12.6967C11.4645 12.4038 10.9896 12.4038 10.6967 12.6967C10.4038 12.9896 10.4038 13.4645 10.6967 13.7574L15.4697 18.5303ZM15.25 6L15.25 18L16.75 18L16.75 6L15.25 6Z" fill="#D9D9D9"/>
<path fill-rule="evenodd" clip-rule="evenodd" d="M4.5 15V22C4.5 23.933 6.067 25.5 8 25.5H24C25.933 25.5 27.5 23.933 27.5 22V15H26V22C26 23.1046 25.1046 24 24 24H8C6.89543 24 6 23.1046 6 22V15H4.5Z" fill="#D9D9D9"/>
</svg>
