<svg width="32" height="32" viewBox="0 0 32 32" fill="none" xmlns="http://www.w3.org/2000/svg">
<path fill-rule="evenodd" clip-rule="evenodd" d="M6.5 14C6.5 18.1421 9.85786 21.5 14 21.5C18.1421 21.5 21.5 18.1421 21.5 14C21.5 9.85786 18.1421 6.5 14 6.5C9.85786 6.5 6.5 9.85786 6.5 14ZM5 14C5 18.9706 9.02944 23 14 23C15.9821 23 17.8145 22.3593 19.3015 21.2736C19.3381 21.3671 19.3941 21.4548 19.4697 21.5303L24.9697 27.0303C25.2626 27.3232 25.7374 27.3232 26.0303 27.0303C26.3232 26.7374 26.3232 26.2626 26.0303 25.9697L20.5303 20.4697C20.4833 20.4226 20.4316 20.3832 20.3767 20.3512C21.9979 18.7236 23 16.4788 23 14C23 9.02944 18.9706 5 14 5C9.02944 5 5 9.02944 5 14Z" fill="#ABABAF"/>
</svg>
