<svg width="32" height="32" viewBox="0 0 32 32" fill="none" xmlns="http://www.w3.org/2000/svg">
<path d="M26.4079 18.4L25.2079 17.7C23.9079 16.9 23.9079 15 25.2079 14.2L26.4079 13.5C27.4079 12.9 27.7079 11.7 27.1079 10.8L26.1079 9.1C25.5079 8.1 24.3079 7.8 23.4079 8.4L22.2079 9.1C20.9079 9.9 19.2079 8.9 19.2079 7.4V6C19.2079 4.9 18.3079 4 17.2079 4H15.2079C14.1079 4 13.2079 4.9 13.2079 6V7.3C13.2079 8.8 11.5079 9.8 10.2079 9L9.00785 8.4C8.00785 7.8 6.80785 8.2 6.30785 9.1L5.30785 10.8C4.80785 11.8 5.10785 13 6.00785 13.6L7.20785 14.3C8.50785 15 8.50785 17 7.20785 17.7L6.00785 18.4C5.00785 19 4.70785 20.2 5.30785 21.1L6.30785 22.8C6.90785 23.8 8.10785 24.1 9.00785 23.5L10.2079 22.9C11.5079 22.1 13.2079 23.1 13.2079 24.6V26C13.2079 27.1 14.1079 28 15.2079 28H17.2079C18.3079 28 19.2079 27.1 19.2079 26V24.7C19.2079 23.2 20.9079 22.2 22.2079 23L23.4079 23.7C24.4079 24.3 25.6079 23.9 26.1079 23L27.1079 21.3C27.6079 20.2 27.3079 19 26.4079 18.4ZM16.2079 20C14.0079 20 12.2079 18.2 12.2079 16C12.2079 13.8 14.0079 12 16.2079 12C18.4079 12 20.2079 13.8 20.2079 16C20.2079 18.2 18.4079 20 16.2079 20Z" fill="white"/>
</svg>
