<svg width="32" height="32" viewBox="0 0 32 32" fill="none" xmlns="http://www.w3.org/2000/svg">
<path fill-rule="evenodd" clip-rule="evenodd" d="M24 6.5H8C6.067 6.5 4.5 8.067 4.5 10V22C4.5 23.933 6.067 25.5 8 25.5H24C25.933 25.5 27.5 23.933 27.5 22V10C27.5 8.067 25.933 6.5 24 6.5ZM6 10C6 8.89543 6.89543 8 8 8H24C25.1046 8 26 8.89543 26 10V22C26 23.1046 25.1046 24 24 24H8C6.89543 24 6 23.1046 6 22V10ZM15.4697 10.4697L10.6967 15.2426C10.4038 15.5355 10.4038 16.0104 10.6967 16.3033C10.9896 16.5962 11.4645 16.5962 11.7574 16.3033L15.25 12.8107V21C15.25 21.4142 15.5858 21.75 16 21.75C16.4142 21.75 16.75 21.4142 16.75 21V12.8107L20.2426 16.3033C20.5355 16.5962 21.0104 16.5962 21.3033 16.3033C21.5962 16.0104 21.5962 15.5355 21.3033 15.2426L16.5303 10.4697C16.2374 10.1768 15.7626 10.1768 15.4697 10.4697Z" fill="#D9D9D9"/>
</svg>
