<svg width="32" height="32" viewBox="0 0 32 32" fill="none" xmlns="http://www.w3.org/2000/svg">
<path fill-rule="evenodd" clip-rule="evenodd" d="M7.2 7C5.98497 7 5 8.00736 5 9.25V22.75C5 23.9926 5.98497 25 7.2 25H9.00348C9.13752 21.1777 11.2796 18.1403 16 18.1403C20.7205 18.1403 22.8626 21.1777 22.9966 25H24.8C26.015 25 27 23.9926 27 22.75V9.25C27 8.00736 26.015 7 24.8 7H7.2ZM19.4886 13.4886C19.4886 15.4152 17.9267 16.9771 16.0001 16.9771C14.0734 16.9771 12.5115 15.4152 12.5115 13.4886C12.5115 11.5619 14.0734 10 16.0001 10C17.9267 10 19.4886 11.5619 19.4886 13.4886Z" fill="white"/>
</svg>
