<svg width="32" height="32" viewBox="0 0 32 32" fill="none" xmlns="http://www.w3.org/2000/svg">
<path d="M25.25 11.5C25.6297 11.5 25.9435 11.7822 25.9932 12.1482L26 12.25V20.75C26 22.483 24.6435 23.8992 22.9344 23.9949L22.75 24H10.061L10.7803 24.7197C11.0466 24.9859 11.0708 25.4026 10.853 25.6962L10.7803 25.7803C10.5141 26.0466 10.0974 26.0708 9.80379 25.8529L9.71967 25.7803L7.71967 23.7803L7.65627 23.7083C7.65382 23.7051 7.6514 23.7019 7.649 23.6987L7.71967 23.7803C7.68262 23.7433 7.65025 23.7033 7.62257 23.6612C7.60941 23.641 7.59703 23.62 7.58567 23.5984C7.58084 23.5893 7.57648 23.5806 7.5723 23.5718C7.55956 23.545 7.54805 23.5165 7.5383 23.4873C7.53604 23.4803 7.53412 23.4742 7.53227 23.4682C7.51135 23.3997 7.5 23.3262 7.5 23.25C7.5 23.2116 7.50288 23.1739 7.50845 23.137C7.51025 23.1255 7.51231 23.1138 7.51464 23.1021C7.51959 23.0771 7.52576 23.0528 7.53309 23.029C7.53671 23.0174 7.54074 23.0053 7.54509 22.9933C7.55357 22.97 7.56288 22.948 7.57317 22.9265C7.57867 22.9149 7.58497 22.9025 7.59163 22.8903C7.60487 22.8663 7.61898 22.8436 7.63422 22.8217C7.63814 22.816 7.64254 22.8099 7.64705 22.8038C7.67217 22.7706 7.69507 22.7443 7.71967 22.7197L9.71967 20.7197C10.0126 20.4268 10.4874 20.4268 10.7803 20.7197C11.0466 20.9859 11.0708 21.4026 10.853 21.6962L10.7803 21.7803L10.06 22.5H22.75C23.6682 22.5 24.4212 21.7929 24.4942 20.8935L24.5 20.75V12.25C24.5 11.8358 24.8358 11.5 25.25 11.5ZM22.1962 6.14705L22.2803 6.21967L24.2803 8.21967C24.3058 8.24512 24.3294 8.27239 24.351 8.30126L24.2803 8.21967C24.3174 8.25672 24.3497 8.29669 24.3774 8.33883C24.3906 8.35898 24.403 8.37997 24.4143 8.40158C24.4192 8.4107 24.4235 8.41943 24.4277 8.42823C24.4404 8.45502 24.4519 8.48348 24.4617 8.51274C24.464 8.51968 24.4659 8.52575 24.4677 8.53184C24.4886 8.60032 24.5 8.67384 24.5 8.75C24.5 8.78839 24.4971 8.82611 24.4916 8.86295C24.4901 8.8725 24.4884 8.88219 24.4865 8.89186C24.4814 8.91897 24.4748 8.94527 24.4669 8.97098C24.4633 8.98264 24.4593 8.99469 24.4549 9.00665C24.4464 9.02995 24.4371 9.05202 24.4268 9.07352C24.4213 9.08512 24.415 9.09746 24.4084 9.10965C24.3951 9.13367 24.381 9.15639 24.3658 9.17826C24.3619 9.184 24.3575 9.19013 24.3529 9.19621C24.3292 9.22765 24.3078 9.25237 24.285 9.2756L24.2803 9.28033L22.2803 11.2803C21.9874 11.5732 21.5126 11.5732 21.2197 11.2803C20.9534 11.0141 20.9292 10.5974 21.1471 10.3038L21.2197 10.2197L21.938 9.5H9.25C8.33183 9.5 7.57881 10.2071 7.5058 11.1065L7.5 11.25V19.75C7.5 20.1642 7.16421 20.5 6.75 20.5C6.3703 20.5 6.05651 20.2178 6.00685 19.8518L6 19.75V11.25C6 9.51697 7.35645 8.10075 9.06558 8.00514L9.25 8H21.939L21.2197 7.28033C20.9534 7.01406 20.9292 6.5974 21.1471 6.30379L21.2197 6.21967C21.4859 5.9534 21.9026 5.9292 22.1962 6.14705ZM16 12C18.2091 12 20 13.7909 20 16C20 18.2091 18.2091 20 16 20C13.7909 20 12 18.2091 12 16C12 13.7909 13.7909 12 16 12Z" fill="white"/>
</svg>
