<svg width="32" height="32" viewBox="0 0 32 32" fill="none" xmlns="http://www.w3.org/2000/svg">
<path fill-rule="evenodd" clip-rule="evenodd" d="M18 5C18.5523 5 19 5.44772 19 6C19 6.55228 18.5523 7 18 7L14 7C13.4477 7 13 6.55228 13 6C13 5.44772 13.4477 5 14 5H18ZM9 9C8.44772 9 8 9.44772 8 10C8 10.5523 8.44772 11 9 11H23C23.5523 11 24 10.5523 24 10C24 9.44772 23.5523 9 23 9H9ZM9.22232 14.1845L11.2869 25.1845C11.3757 25.6574 11.7886 26 12.2698 26H19.7302C20.2114 26 20.6243 25.6574 20.7131 25.1845L22.7777 14.1845C22.8932 13.569 22.4211 13 21.7948 13H10.2052C9.57894 13 9.1068 13.569 9.22232 14.1845ZM12.5553 14.9998C12.2591 14.9998 12.0287 15.2573 12.0614 15.5516L12.9509 23.5579C12.9788 23.8096 13.1916 24 13.4448 24C13.741 24 13.9714 23.7426 13.9387 23.4482L13.0492 15.4419C13.0212 15.1902 12.8085 14.9998 12.5553 14.9998ZM15.5 15.5C15.5 15.2239 15.7239 15 16 15C16.2761 15 16.5 15.2239 16.5 15.5V23.5C16.5 23.7761 16.2761 24 16 24C15.7239 24 15.5 23.7761 15.5 23.5V15.5ZM19.4448 15.004C19.1916 15.004 18.9788 15.1944 18.9509 15.4461L18.0613 23.454C18.0286 23.7483 18.259 24.0058 18.5552 24.0058C18.8084 24.0058 19.0212 23.8154 19.0491 23.5637L19.9387 15.5558C19.9714 15.2614 19.741 15.004 19.4448 15.004Z" fill="white"/>
</svg>
