<svg width="32" height="32" viewBox="0 0 32 32" fill="none" xmlns="http://www.w3.org/2000/svg">
<path fill-rule="evenodd" clip-rule="evenodd" d="M5.49828 7.43945C5.18869 7.16426 4.71464 7.19215 4.43945 7.50174C4.16426 7.81132 4.19215 8.28538 4.50174 8.56056L8.65236 12.25H6.00001C5.58579 12.25 5.25001 12.5858 5.25001 13C5.25001 13.4142 5.58579 13.75 6.00001 13.75H11.25V8.50001C11.25 8.08579 10.9142 7.75001 10.5 7.75001C10.0858 7.75001 9.75001 8.08579 9.75001 8.50001V11.2188L5.49828 7.43945ZM25 13.75C24.5858 13.75 24.25 13.4142 24.25 13V11C24.25 10.3096 23.6904 9.75 23 9.75H15C14.5858 9.75 14.25 9.41421 14.25 9C14.25 8.58579 14.5858 8.25 15 8.25L23 8.25C24.5188 8.25 25.75 9.48122 25.75 11V13C25.75 13.4142 25.4142 13.75 25 13.75ZM15 16C14.4477 16 14 16.4477 14 17V23C14 23.5523 14.4477 24 15 24H26C26.5523 24 27 23.5523 27 23V17C27 16.4477 26.5523 16 26 16H15ZM6.75 17.5C6.75 17.0858 6.41421 16.75 6 16.75C5.58579 16.75 5.25 17.0858 5.25 17.5V20C5.25 21.5188 6.48122 22.75 8 22.75H11C11.4142 22.75 11.75 22.4142 11.75 22C11.75 21.5858 11.4142 21.25 11 21.25H8C7.30964 21.25 6.75 20.6904 6.75 20V17.5Z" fill="white"/>
</svg>
