<svg width="32" height="32" viewBox="0 0 32 32" fill="none" xmlns="http://www.w3.org/2000/svg">
<path d="M17.825 10.413V10.3994H13.1594H8.5H8.22182L10.1954 12.3762C10.458 12.6393 10.458 13.069 10.1954 13.3321C9.93273 13.5952 9.50352 13.5952 9.24087 13.3321L6.14712 10.2333C6.01123 10.0972 5.94939 9.91755 5.95311 9.73979C5.94872 9.56177 6.01132 9.38214 6.14712 9.24613L9.24087 6.14732C9.50352 5.88423 9.93273 5.88423 10.1954 6.14732C10.458 6.41036 10.458 6.84012 10.1954 7.10316L10.16 7.06784L10.1954 7.10317L8.25435 9.04678H17.875C17.9001 9.04678 17.9223 9.05193 17.9403 9.0568C17.946 9.05835 17.9511 9.0598 17.9559 9.06113C17.9663 9.06408 17.9748 9.06648 17.984 9.06829C22.4745 9.2904 26.05 12.9963 26.05 17.5487C26.05 22.2439 22.2502 26.05 17.5625 26.05C17.5185 26.05 17.4755 26.0474 17.4338 26.0446C17.4279 26.0442 17.422 26.0438 17.4161 26.0434C17.3818 26.041 17.3484 26.0387 17.3147 26.0376C17.3108 26.0383 17.3065 26.0395 17.2994 26.0415C17.298 26.0419 17.2964 26.0423 17.2946 26.0428C17.2841 26.0458 17.2683 26.05 17.25 26.05H6.625C6.25356 26.05 5.95 25.7458 5.95 25.374C5.95 25.0021 6.25356 24.698 6.625 24.698H8.5H13.1594H17.825V24.6844L17.8728 24.6824C21.6694 24.5182 24.7 21.3925 24.7 17.5487C24.7 13.7056 21.6694 10.5792 17.8728 10.415L17.825 10.413Z" fill="white" stroke="white" stroke-width="0.1"/>
</svg>
