<svg width="32" height="32" viewBox="0 0 32 32" fill="none" xmlns="http://www.w3.org/2000/svg">
<path d="M14.175 10.413V10.3994H18.8406H23.5H23.7782L21.8046 12.3762C21.542 12.6393 21.542 13.069 21.8046 13.3321C22.0673 13.5952 22.4965 13.5952 22.7591 13.3321L25.8529 10.2333C25.9888 10.0972 26.0506 9.91755 26.0469 9.73979C26.0513 9.56177 25.9887 9.38214 25.8529 9.24613L22.7591 6.14732C22.4965 5.88423 22.0673 5.88423 21.8046 6.14732C21.542 6.41036 21.542 6.84012 21.8046 7.10316L21.84 7.06784L21.8046 7.10317L23.7457 9.04678H14.125C14.0999 9.04678 14.0777 9.05193 14.0597 9.0568C14.054 9.05835 14.0489 9.0598 14.0441 9.06113C14.0337 9.06408 14.0252 9.06648 14.016 9.06829C9.52553 9.2904 5.95 12.9963 5.95 17.5487C5.95 22.2439 9.74981 26.05 14.4375 26.05C14.4815 26.05 14.5245 26.0474 14.5662 26.0446C14.5721 26.0442 14.578 26.0438 14.5839 26.0434C14.6182 26.041 14.6516 26.0387 14.6853 26.0376C14.6892 26.0383 14.6935 26.0395 14.7006 26.0415C14.702 26.0419 14.7036 26.0423 14.7054 26.0428C14.7159 26.0458 14.7317 26.05 14.75 26.05H25.375C25.7464 26.05 26.05 25.7458 26.05 25.374C26.05 25.0021 25.7464 24.698 25.375 24.698H23.5H18.8406H14.175V24.6844L14.1272 24.6824C10.3306 24.5182 7.3 21.3925 7.3 17.5487C7.3 13.7056 10.3306 10.5792 14.1272 10.415L14.175 10.413Z" fill="white" stroke="white" stroke-width="0.1"/>
</svg>
